<svg width="27" height="28" viewBox="0 0 27 28" fill="none" xmlns="http://www.w3.org/2000/svg">
<path d="M17.5 12.9664V5.42682C17.5 4.6539 17.1938 3.91015 16.6396 3.37057L14.1458 0.876819C13.5771 0.308069 12.6583 0.308069 12.0896 0.876819L9.61042 3.35599C9.05625 3.91015 8.75 4.6539 8.75 5.42682V7.13307H2.91667C1.3125 7.13307 0 8.44557 0 10.0497V24.6331C0 26.2372 1.3125 27.5497 2.91667 27.5497H23.3333C24.9375 27.5497 26.25 26.2372 26.25 24.6331V15.8831C26.25 14.2789 24.9375 12.9664 23.3333 12.9664H17.5ZM5.83333 24.6331H2.91667V21.7164H5.83333V24.6331ZM5.83333 18.7997H2.91667V15.8831H5.83333V18.7997ZM5.83333 12.9664H2.91667V10.0497H5.83333V12.9664ZM14.5833 24.6331H11.6667V21.7164H14.5833V24.6331ZM14.5833 18.7997H11.6667V15.8831H14.5833V18.7997ZM14.5833 12.9664H11.6667V10.0497H14.5833V12.9664ZM14.5833 7.13307H11.6667V4.2164H14.5833V7.13307ZM23.3333 24.6331H20.4167V21.7164H23.3333V24.6331ZM23.3333 18.7997H20.4167V15.8831H23.3333V18.7997Z" fill="#201A17"/>
</svg>
