<svg width="244" height="116" viewBox="0 0 244 116" fill="none" xmlns="http://www.w3.org/2000/svg">
<path d="M32.6065 116C14.5984 116 3.00713e-06 101.402 2.21997e-06 83.3935L0 32.6065C-7.87157e-07 14.5984 14.5984 2.99253e-06 32.6065 2.20537e-06L83.3935 0C101.402 -7.87157e-07 116 14.5984 116 32.6065V83.3935C116 101.402 101.402 116 83.3935 116H32.6065Z" fill="#FFFBFF"/>
<path d="M32.6065 116C14.5984 116 3.00713e-06 101.402 2.21997e-06 83.3935L0 32.6065C-7.87157e-07 14.5984 14.5984 2.99253e-06 32.6065 2.20537e-06L83.3935 0C101.402 -7.87157e-07 116 14.5984 116 32.6065V83.3935C116 101.402 101.402 116 83.3935 116H32.6065Z" fill="#FFFBFF"/>
<path d="M84.6065 116C66.5984 116 52 101.402 52 83.3935L52 32.6065C52 14.5984 66.5984 2.99253e-06 84.6065 2.20537e-06L135.394 0C153.402 -7.87157e-07 168 14.5984 168 32.6065V83.3935C168 101.402 153.402 116 135.394 116H84.6065Z" fill="#FFFBFF"/>
<path d="M84.6065 116C66.5984 116 52 101.402 52 83.3935L52 32.6065C52 14.5984 66.5984 2.99253e-06 84.6065 2.20537e-06L135.394 0C153.402 -7.87157e-07 168 14.5984 168 32.6065V83.3935C168 101.402 153.402 116 135.394 116H84.6065Z" fill="#FFFBFF"/>
<path d="M139.606 116C121.598 116 107 101.402 107 83.3935V32.6065C107 14.5984 121.598 2.99253e-06 139.606 2.20537e-06L190.394 0C208.402 -7.87157e-07 223 14.5984 223 32.6065V83.3935C223 101.402 208.402 116 190.394 116H139.606Z" fill="#FFFBFF"/>
<path d="M139.606 116C121.598 116 107 101.402 107 83.3935V32.6065C107 14.5984 121.598 2.99253e-06 139.606 2.20537e-06L190.394 0C208.402 -7.87157e-07 223 14.5984 223 32.6065V83.3935C223 101.402 208.402 116 190.394 116H139.606Z" fill="#FFFBFF"/>
<path d="M160.5 116C142.492 116 127.894 101.402 127.894 83.3935V32.6065C127.894 14.5984 142.492 6.3647e-06 160.5 5.57755e-06L211.287 3.35758e-06C229.295 2.57042e-06 243.894 14.5984 243.894 32.6065V83.3935C243.894 101.402 229.295 116 211.287 116H160.5Z" fill="#FFFBFF"/>
<path d="M160.5 116C142.492 116 127.894 101.402 127.894 83.3935V32.6065C127.894 14.5984 142.492 6.3647e-06 160.5 5.57755e-06L211.287 3.35758e-06C229.295 2.57042e-06 243.894 14.5984 243.894 32.6065V83.3935C243.894 101.402 229.295 116 211.287 116H160.5Z" fill="#FFFBFF"/>
<path d="M23.2 48.43C23.2 48.2699 23.3298 48.14 23.49 48.14H64.67C64.8302 48.14 64.96 48.2699 64.96 48.43V61.77C64.96 61.9302 64.8302 62.06 64.67 62.06H23.49C23.3298 62.06 23.2 61.9302 23.2 61.77V48.43Z" fill="#808080"/>
<path d="M23.2 48.14H64.96V62.06H23.2V48.14Z" fill="#DDA25C"/>
<path d="M23.2 62.35C23.2 62.1899 23.3298 62.06 23.49 62.06H64.67C64.8302 62.06 64.96 62.1899 64.96 62.35V89.61C64.96 89.7702 64.8302 89.9 64.67 89.9H23.49C23.3298 89.9 23.2 89.7702 23.2 89.61V62.35Z" fill="#808080"/>
<path d="M23.2 62.06H64.96V89.9H23.2V62.06Z" fill="#AA6230"/>
<path d="M64.96 48.43C64.96 48.2699 65.0898 48.14 65.25 48.14H92.51C92.6702 48.14 92.8 48.2699 92.8 48.43V61.77C92.8 61.9302 92.6702 62.06 92.51 62.06H65.25C65.0898 62.06 64.96 61.9302 64.96 61.77V48.43Z" fill="#808080"/>
<path d="M64.96 48.14H92.8V62.06H64.96V48.14Z" fill="#DDA25C"/>
<path d="M23.2 89.9H37.12V103.82C29.4322 103.82 23.2 97.5878 23.2 89.9Z" fill="#5D2C0C"/>
<path d="M37.12 90.19C37.12 90.0299 37.2498 89.9 37.41 89.9H50.75C50.9102 89.9 51.04 90.0299 51.04 90.19V103.53C51.04 103.69 50.9102 103.82 50.75 103.82H37.41C37.2498 103.82 37.12 103.69 37.12 103.53V90.19Z" fill="#808080"/>
<path d="M37.12 89.9H51.04V103.82H37.12V89.9Z" fill="#5D2C0C"/>
<path d="M51.04 89.9H64.96C64.96 97.5878 58.7278 103.82 51.04 103.82V89.9Z" fill="#5D2C0C"/>
<path d="M78.88 62.35C78.88 62.1899 79.0098 62.06 79.17 62.06H92.51C92.6702 62.06 92.8 62.1899 92.8 62.35V75.69C92.8 75.8502 92.6702 75.98 92.51 75.98H79.17C79.0098 75.98 78.88 75.8502 78.88 75.69V62.35Z" fill="#808080"/>
<path d="M78.88 62.06H92.8V75.98H78.88V62.06Z" fill="#DDA25C"/>
<path d="M51.04 20.3V34.22C43.3522 34.22 37.12 40.4522 37.12 48.14H23.2C23.2 32.7644 35.6644 20.3 51.04 20.3Z" fill="#D7D3D3"/>
<path d="M51.04 34.22L51.04 20.3C58.7278 20.3 64.96 14.0678 64.96 6.37997L78.88 6.37997C78.88 21.7556 66.4156 34.22 51.04 34.22Z" fill="#D7D3D3"/>
<path d="M64.96 48.14V34.22C72.6478 34.22 78.88 27.9878 78.88 20.3L92.8 20.3C92.8 35.6756 80.3356 48.14 64.96 48.14Z" fill="#D7D3D3"/>
<path d="M51.04 48.14C51.04 40.4522 57.2722 34.22 64.96 34.22V34.22V48.14H51.04V48.14Z" fill="#D7D3D3"/>
<rect x="36.54" y="89.9" width="0.58" height="13.92" fill="#53270B"/>
<rect x="50.46" y="89.9" width="0.58" height="13.92" fill="#53270B"/>
<rect x="37.12" y="89.9" width="0.58" height="13.92" fill="#79380E"/>
<rect x="51.04" y="89.9" width="0.58" height="13.92" fill="#79380E"/>
<rect x="23.2" y="88.74" width="41.76" height="0.58" fill="#6D3F1F"/>
<rect x="23.2" y="89.32" width="41.76" height="0.58" fill="#79380E"/>
<rect x="23.2" y="62.06" width="41.76" height="0.58" fill="#B27F43"/>
<rect x="23.2" y="62.64" width="41.76" height="0.58" fill="#D67B3F"/>
<rect x="78.88" y="62.06" width="13.92" height="0.58" fill="#B37F43"/>
<rect x="78.88" y="62.64" width="13.92" height="0.58" fill="#F2B367"/>
<rect x="64.38" y="48.14" width="0.58" height="13.92" fill="#B27F43"/>
<rect x="64.96" y="48.14" width="0.58" height="13.92" fill="#F2B367"/>
<path d="M123.048 53.432C121.104 53.432 119.292 53.12 117.612 52.496C115.956 51.848 114.516 50.936 113.292 49.76C112.068 48.584 111.108 47.204 110.412 45.62C109.74 44.036 109.404 42.296 109.404 40.4C109.404 38.504 109.74 36.764 110.412 35.18C111.108 33.596 112.068 32.216 113.292 31.04C114.54 29.864 115.992 28.964 117.648 28.34C119.304 27.692 121.116 27.368 123.084 27.368C125.268 27.368 127.236 27.752 128.988 28.52C130.764 29.264 132.252 30.368 133.452 31.832L129.708 35.288C128.844 34.304 127.884 33.572 126.828 33.092C125.772 32.588 124.62 32.336 123.372 32.336C122.196 32.336 121.116 32.528 120.132 32.912C119.148 33.296 118.296 33.848 117.576 34.568C116.856 35.288 116.292 36.14 115.884 37.124C115.5 38.108 115.308 39.2 115.308 40.4C115.308 41.6 115.5 42.692 115.884 43.676C116.292 44.66 116.856 45.512 117.576 46.232C118.296 46.952 119.148 47.504 120.132 47.888C121.116 48.272 122.196 48.464 123.372 48.464C124.62 48.464 125.772 48.224 126.828 47.744C127.884 47.24 128.844 46.484 129.708 45.476L133.452 48.932C132.252 50.396 130.764 51.512 128.988 52.28C127.236 53.048 125.256 53.432 123.048 53.432ZM145.542 53.288C143.478 53.288 141.642 52.856 140.034 51.992C138.45 51.128 137.19 49.952 136.254 48.464C135.342 46.952 134.886 45.236 134.886 43.316C134.886 41.372 135.342 39.656 136.254 38.168C137.19 36.656 138.45 35.48 140.034 34.64C141.642 33.776 143.478 33.344 145.542 33.344C147.582 33.344 149.406 33.776 151.014 34.64C152.622 35.48 153.882 36.644 154.794 38.132C155.706 39.62 156.162 41.348 156.162 43.316C156.162 45.236 155.706 46.952 154.794 48.464C153.882 49.952 152.622 51.128 151.014 51.992C149.406 52.856 147.582 53.288 145.542 53.288ZM145.542 48.68C146.478 48.68 147.318 48.464 148.062 48.032C148.806 47.6 149.394 46.988 149.826 46.196C150.258 45.38 150.474 44.42 150.474 43.316C150.474 42.188 150.258 41.228 149.826 40.436C149.394 39.644 148.806 39.032 148.062 38.6C147.318 38.168 146.478 37.952 145.542 37.952C144.606 37.952 143.766 38.168 143.022 38.6C142.278 39.032 141.678 39.644 141.222 40.436C140.79 41.228 140.574 42.188 140.574 43.316C140.574 44.42 140.79 45.38 141.222 46.196C141.678 46.988 142.278 47.6 143.022 48.032C143.766 48.464 144.606 48.68 145.542 48.68ZM160.6 53V33.2C160.6 31.016 161.248 29.276 162.544 27.98C163.84 26.66 165.688 26 168.088 26C168.904 26 169.684 26.084 170.428 26.252C171.196 26.42 171.844 26.684 172.372 27.044L170.896 31.112C170.584 30.896 170.236 30.728 169.852 30.608C169.468 30.488 169.06 30.428 168.628 30.428C167.812 30.428 167.176 30.668 166.72 31.148C166.288 31.604 166.072 32.3 166.072 33.236V35.036L166.216 37.448V53H160.6ZM157.612 38.384V34.064H171.04V38.384H157.612ZM174.803 53V33.2C174.803 31.016 175.451 29.276 176.747 27.98C178.043 26.66 179.891 26 182.291 26C183.107 26 183.887 26.084 184.631 26.252C185.399 26.42 186.047 26.684 186.575 27.044L185.099 31.112C184.787 30.896 184.439 30.728 184.055 30.608C183.671 30.488 183.263 30.428 182.831 30.428C182.015 30.428 181.379 30.668 180.923 31.148C180.491 31.604 180.275 32.3 180.275 33.236V35.036L180.419 37.448V53H174.803ZM171.815 38.384V34.064H185.243V38.384H171.815ZM197.407 53.288C195.199 53.288 193.255 52.856 191.575 51.992C189.919 51.128 188.635 49.952 187.723 48.464C186.811 46.952 186.355 45.236 186.355 43.316C186.355 41.372 186.799 39.656 187.687 38.168C188.599 36.656 189.835 35.48 191.395 34.64C192.955 33.776 194.719 33.344 196.687 33.344C198.583 33.344 200.287 33.752 201.799 34.568C203.335 35.36 204.547 36.512 205.435 38.024C206.323 39.512 206.767 41.3 206.767 43.388C206.767 43.604 206.755 43.856 206.731 44.144C206.707 44.408 206.683 44.66 206.659 44.9H190.927V41.624H203.707L201.547 42.596C201.547 41.588 201.343 40.712 200.935 39.968C200.527 39.224 199.963 38.648 199.243 38.24C198.523 37.808 197.683 37.592 196.723 37.592C195.763 37.592 194.911 37.808 194.167 38.24C193.447 38.648 192.883 39.236 192.475 40.004C192.067 40.748 191.863 41.636 191.863 42.668V43.532C191.863 44.588 192.091 45.524 192.547 46.34C193.027 47.132 193.687 47.744 194.527 48.176C195.391 48.584 196.399 48.788 197.551 48.788C198.583 48.788 199.483 48.632 200.251 48.32C201.043 48.008 201.763 47.54 202.411 46.916L205.399 50.156C204.511 51.164 203.395 51.944 202.051 52.496C200.707 53.024 199.159 53.288 197.407 53.288ZM220.118 53.288C217.91 53.288 215.966 52.856 214.286 51.992C212.63 51.128 211.346 49.952 210.434 48.464C209.522 46.952 209.066 45.236 209.066 43.316C209.066 41.372 209.51 39.656 210.398 38.168C211.31 36.656 212.546 35.48 214.106 34.64C215.666 33.776 217.43 33.344 219.398 33.344C221.294 33.344 222.998 33.752 224.51 34.568C226.046 35.36 227.258 36.512 228.146 38.024C229.034 39.512 229.478 41.3 229.478 43.388C229.478 43.604 229.466 43.856 229.442 44.144C229.418 44.408 229.394 44.66 229.37 44.9H213.638V41.624H226.418L224.258 42.596C224.258 41.588 224.054 40.712 223.646 39.968C223.238 39.224 222.674 38.648 221.954 38.24C221.234 37.808 220.394 37.592 219.434 37.592C218.474 37.592 217.622 37.808 216.878 38.24C216.158 38.648 215.594 39.236 215.186 40.004C214.778 40.748 214.574 41.636 214.574 42.668V43.532C214.574 44.588 214.802 45.524 215.258 46.34C215.738 47.132 216.398 47.744 217.238 48.176C218.102 48.584 219.11 48.788 220.262 48.788C221.294 48.788 222.194 48.632 222.962 48.32C223.754 48.008 224.474 47.54 225.122 46.916L228.11 50.156C227.222 51.164 226.106 51.944 224.762 52.496C223.418 53.024 221.87 53.288 220.118 53.288ZM110.988 89V63.8H123.3C126.468 63.8 128.844 64.4 130.428 65.6C132.036 66.8 132.84 68.384 132.84 70.352C132.84 71.672 132.516 72.824 131.868 73.808C131.22 74.768 130.332 75.512 129.204 76.04C128.076 76.568 126.78 76.832 125.316 76.832L126 75.356C127.584 75.356 128.988 75.62 130.212 76.148C131.436 76.652 132.384 77.408 133.056 78.416C133.752 79.424 134.1 80.66 134.1 82.124C134.1 84.284 133.248 85.976 131.544 87.2C129.84 88.4 127.332 89 124.02 89H110.988ZM116.784 84.608H123.588C125.1 84.608 126.24 84.368 127.008 83.888C127.8 83.384 128.196 82.592 128.196 81.512C128.196 80.456 127.8 79.676 127.008 79.172C126.24 78.644 125.1 78.38 123.588 78.38H116.352V74.132H122.58C123.996 74.132 125.076 73.892 125.82 73.412C126.588 72.908 126.972 72.152 126.972 71.144C126.972 70.16 126.588 69.428 125.82 68.948C125.076 68.444 123.996 68.192 122.58 68.192H116.784V84.608ZM138.119 89V69.632H143.483V75.104L142.727 73.52C143.303 72.152 144.227 71.12 145.499 70.424C146.771 69.704 148.319 69.344 150.143 69.344V74.528C149.903 74.504 149.687 74.492 149.495 74.492C149.303 74.468 149.099 74.456 148.883 74.456C147.347 74.456 146.099 74.9 145.139 75.788C144.203 76.652 143.735 78.008 143.735 79.856V89H138.119ZM153.518 89V69.632H159.134V89H153.518ZM156.326 66.932C155.294 66.932 154.454 66.632 153.806 66.032C153.158 65.432 152.834 64.688 152.834 63.8C152.834 62.912 153.158 62.168 153.806 61.568C154.454 60.968 155.294 60.668 156.326 60.668C157.358 60.668 158.198 60.956 158.846 61.532C159.494 62.084 159.818 62.804 159.818 63.692C159.818 64.628 159.494 65.408 158.846 66.032C158.222 66.632 157.382 66.932 156.326 66.932ZM173.706 89.288C171.618 89.288 169.758 88.868 168.126 88.028C166.494 87.164 165.21 85.976 164.274 84.464C163.362 82.952 162.906 81.236 162.906 79.316C162.906 77.372 163.362 75.656 164.274 74.168C165.21 72.656 166.494 71.48 168.126 70.64C169.758 69.776 171.618 69.344 173.706 69.344C175.746 69.344 177.522 69.776 179.034 70.64C180.546 71.48 181.662 72.692 182.382 74.276L178.026 76.616C177.522 75.704 176.886 75.032 176.118 74.6C175.374 74.168 174.558 73.952 173.67 73.952C172.71 73.952 171.846 74.168 171.078 74.6C170.31 75.032 169.698 75.644 169.242 76.436C168.81 77.228 168.594 78.188 168.594 79.316C168.594 80.444 168.81 81.404 169.242 82.196C169.698 82.988 170.31 83.6 171.078 84.032C171.846 84.464 172.71 84.68 173.67 84.68C174.558 84.68 175.374 84.476 176.118 84.068C176.886 83.636 177.522 82.952 178.026 82.016L182.382 84.392C181.662 85.952 180.546 87.164 179.034 88.028C177.522 88.868 175.746 89.288 173.706 89.288ZM190.154 85.04L190.298 78.2L199.334 69.632H206.03L197.354 78.452L194.438 80.828L190.154 85.04ZM185.51 89V62.288H191.126V89H185.51ZM199.946 89L193.394 80.864L196.922 76.508L206.75 89H199.946Z" fill="#201A17"/>
</svg>
